<svg xmlns="http://www.w3.org/2000/svg" width="32.124" height="32.125"><path d="M16.063.664C7.206.664 0 6.075 0 12.727c0 3.753 2.293 7.251 6.19 9.526L1.4 29.931a1.001 1.001 0 001.396 1.366l10.271-6.723c1.003.142 2.009.214 2.994.214 8.856 0 16.063-5.411 16.063-12.063S24.919.664 16.063.664zm0 22.125a19.51 19.51 0 01-3.065-.247 1.011 1.011 0 00-.706.149L5.5 27.136l2.95-4.73a1.002 1.002 0 00-.402-1.424c-3.788-1.893-6.049-4.979-6.049-8.257 0-5.548 6.309-10.063 14.063-10.063 7.754 0 14.062 4.514 14.062 10.063 0 5.55-6.308 10.064-14.061 10.064z"/></svg>