<svg xmlns="http://www.w3.org/2000/svg" viewBox="0 0 431.388 431.388"><path d="M430.031 211.283c-.449-1.46-11.37-36.156-43.314-70.763-28.96-31.373-81.357-68.652-167.079-69.773a149.921 149.921 0 00-3.856-.054l-.067.001h-.02c-88.079 0-141.618 37.972-171.022 69.826-31.945 34.606-42.866 69.303-43.315 70.763L0 215.694l1.357 4.411c.449 1.46 11.37 36.156 43.315 70.763 28.96 31.373 81.356 68.652 167.079 69.773 1.283.033 2.568.054 3.856.054l.067-.001h.021c88.079 0 141.618-37.972 171.023-69.826 31.944-34.606 42.865-69.303 43.314-70.763l1.357-4.411-1.358-4.411zM67.605 271.476c-21.517-22.982-32.203-46.344-35.959-55.811 3.666-9.32 13.982-31.952 35.07-54.798 8.463-9.168 17.634-17.285 27.479-24.371-16.316 24.914-24.526 54.197-23.402 84.563.987 26.64 9.134 52.008 23.405 73.835-9.503-6.838-18.375-14.641-26.593-23.418zm68.369 27.103c-21.591-20.762-34.093-48.686-35.202-78.629-1.137-30.696 9.748-59.998 30.65-82.508 20.902-22.51 49.318-35.532 80.015-36.669 1.443-.053 2.904-.08 4.344-.08 29.814 0 58.094 11.405 79.632 32.116 21.592 20.761 34.093 48.685 35.202 78.627 1.137 30.697-9.749 60-30.65 82.51-20.902 22.51-49.318 35.532-80.016 36.669-1.442.053-2.903.08-4.343.08-29.813 0-58.094-11.406-79.632-32.116zm201.219-3.688c16.316-24.915 24.526-54.197 23.401-84.565-.986-26.639-9.133-52.006-23.403-73.832 9.503 6.838 18.374 14.641 26.592 23.417 21.517 22.982 32.203 46.344 35.959 55.811-3.666 9.32-13.982 31.952-35.07 54.798-8.464 9.168-17.634 17.285-27.479 24.371z"/><path d="M218.91 302.525c23.193-.858 44.664-10.698 60.458-27.706 15.792-17.008 24.017-39.148 23.157-62.341-.837-22.624-10.283-43.724-26.599-59.412-16.272-15.646-37.647-24.264-60.185-24.264-1.083 0-2.173.02-3.264.061-23.193.858-44.665 10.697-60.458 27.706-15.793 17.008-24.017 39.148-23.158 62.34.838 22.625 10.284 43.725 26.6 59.413 16.272 15.646 37.646 24.264 60.184 24.264 1.084 0 2.174-.02 3.265-.061zm-44.906-125.543c10.34-11.136 24.398-17.578 39.583-18.141.72-.026 1.439-.039 2.154-.039 30.716 0 55.667 24.064 56.805 54.786.563 15.186-4.823 29.682-15.163 40.817-10.341 11.136-24.398 17.578-39.584 18.141a56.722 56.722 0 01-58.958-54.748c-.562-15.184 4.823-29.68 15.163-40.816z"/><circle cx="230.694" cy="200.694" r="15"/></svg>