<svg xmlns="http://www.w3.org/2000/svg" width="578.713" height="578.713"><path d="M402.011 155.011c8.3 8.298 17.974 14.819 28.757 19.379 11.187 4.731 23.044 7.13 35.244 7.13s24.059-2.399 35.245-7.13a90.167 90.167 0 0028.756-19.379 90.155 90.155 0 0019.379-28.757c4.731-11.186 7.131-23.044 7.131-35.244 0-12.199-2.399-24.058-7.13-35.244-4.562-10.783-11.081-20.458-19.38-28.757S512.04 12.191 501.257 7.63C490.07 2.899 478.212.5 466.012.5s-24.058 2.399-35.244 7.13a90.156 90.156 0 00-28.756 19.379 90.16 90.16 0 00-19.381 28.757c-4.73 11.186-7.129 23.044-7.129 35.244a90.137 90.137 0 003.579 25.243l-198.224 113.89a92.542 92.542 0 00-4.156-4.447 90.153 90.153 0 00-28.756-19.38c-11.186-4.731-23.044-7.13-35.245-7.13s-24.058 2.399-35.244 7.13a90.158 90.158 0 00-28.757 19.38 90.138 90.138 0 00-19.379 28.757c-4.731 11.187-7.131 23.044-7.131 35.245 0 12.199 2.399 24.057 7.131 35.244 4.561 10.783 11.081 20.457 19.379 28.756s17.974 14.818 28.757 19.381c11.186 4.73 23.043 7.131 35.244 7.131s24.059-2.4 35.245-7.131a90.162 90.162 0 0028.756-19.381 91.502 91.502 0 004.239-4.539l198.104 113.43a90.16 90.16 0 00-3.541 25.115c0 12.201 2.398 24.059 7.13 35.244a90.15 90.15 0 0019.379 28.756 90.171 90.171 0 0028.757 19.381c11.187 4.73 23.044 7.129 35.244 7.129s24.059-2.398 35.245-7.129a90.156 90.156 0 0028.756-19.381 90.15 90.15 0 0019.379-28.756c4.731-11.186 7.131-23.045 7.131-35.244s-2.399-24.057-7.13-35.244a90.148 90.148 0 00-19.38-28.756 90.2 90.2 0 00-28.756-19.381c-11.187-4.73-23.045-7.129-35.245-7.129s-24.058 2.398-35.244 7.129a90.177 90.177 0 00-30.426 21.096L200.66 311.084a90.363 90.363 0 002.552-21.387c0-7.316-.87-14.508-2.581-21.508l199.804-114.797a89.008 89.008 0 001.576 1.619zm37.69 292.944a47.43 47.43 0 0126.312-7.924c26.328 0 47.672 21.344 47.672 47.672s-21.344 47.672-47.672 47.672-47.671-21.344-47.671-47.672c0-.863.025-1.721.071-2.572.827-15.531 9.087-29.084 21.288-37.176zm-327-110.588c-26.328 0-47.671-21.342-47.671-47.67 0-26.329 21.343-47.671 47.671-47.671 11.172 0 21.438 3.853 29.565 10.29 11.025 8.731 18.106 22.225 18.106 37.382 0 15.133-7.061 28.611-18.059 37.344-8.135 6.458-18.419 10.325-29.612 10.325zM418.342 91.01c0-26.328 21.343-47.671 47.671-47.671s47.671 21.343 47.671 47.671-21.343 47.671-47.671 47.671a47.429 47.429 0 01-26.252-7.885c-12.215-8.076-20.494-21.618-21.343-37.145a49.176 49.176 0 01-.076-2.641z"/><path d="M466.012 578.713c-12.268 0-24.19-2.412-35.438-7.168-10.84-4.585-20.568-11.142-28.916-19.488a90.64 90.64 0 01-19.486-28.915c-4.757-11.246-7.169-23.17-7.169-35.438a90.914 90.914 0 013.452-24.876L181.046 349.795a92.298 92.298 0 01-3.992 4.256 90.662 90.662 0 01-28.915 19.488c-11.251 4.758-23.174 7.17-35.439 7.17-12.264 0-24.188-2.412-35.438-7.17a90.715 90.715 0 01-28.916-19.488 90.635 90.635 0 01-19.486-28.915c-4.758-11.25-7.17-23.173-7.17-35.438 0-12.267 2.413-24.19 7.17-35.439a90.655 90.655 0 0119.486-28.916 90.647 90.647 0 0128.916-19.487c11.249-4.758 23.172-7.17 35.438-7.17 12.267 0 24.19 2.412 35.439 7.17a90.654 90.654 0 0128.915 19.487 93.155 93.155 0 013.908 4.163l197.53-113.491a90.863 90.863 0 01-3.49-25.004c0-12.268 2.412-24.19 7.168-35.438a90.683 90.683 0 0119.488-28.916 90.645 90.645 0 0128.915-19.486C441.822 2.412 453.745 0 466.012 0s24.191 2.412 35.439 7.17a90.651 90.651 0 0128.915 19.486 90.658 90.658 0 0119.487 28.916c4.757 11.25 7.169 23.173 7.169 35.438 0 12.267-2.412 24.19-7.17 35.439a90.682 90.682 0 01-19.486 28.916 90.634 90.634 0 01-28.915 19.486c-11.248 4.758-23.172 7.17-35.439 7.17s-24.19-2.412-35.438-7.17c-10.841-4.584-20.569-11.141-28.916-19.486a87.507 87.507 0 01-1.314-1.344L201.205 268.436a91.177 91.177 0 012.507 21.261c0 7.138-.833 14.248-2.478 21.14l199.018 113.952a90.695 90.695 0 0130.321-20.927c11.249-4.756 23.172-7.168 35.439-7.168s24.191 2.412 35.439 7.168a90.711 90.711 0 0128.915 19.488 90.637 90.637 0 0119.487 28.915c4.757 11.251 7.169 23.174 7.169 35.438 0 12.268-2.412 24.19-7.17 35.438a90.656 90.656 0 01-19.486 28.915 90.63 90.63 0 01-28.915 19.488c-11.247 4.757-23.171 7.169-35.439 7.169zM180.833 348.521l.355.204L379.633 462.35l-.109.377a89.88 89.88 0 00-3.521 24.977c0 12.135 2.386 23.927 7.091 35.05a89.642 89.642 0 0019.271 28.597c8.257 8.256 17.878 14.74 28.598 19.273 11.125 4.705 22.917 7.09 35.05 7.09 12.134 0 23.926-2.385 35.051-7.09a89.647 89.647 0 0028.597-19.273 89.625 89.625 0 0019.271-28.597c4.706-11.125 7.092-22.917 7.092-35.05 0-12.13-2.386-23.923-7.091-35.05a89.622 89.622 0 00-19.272-28.597 89.69 89.69 0 00-28.598-19.273c-11.124-4.705-22.916-7.09-35.05-7.09-12.133 0-23.925 2.385-35.05 7.09a89.684 89.684 0 00-30.258 20.979l-.271.284-.34-.195-200.009-114.521.089-.365a90.145 90.145 0 002.538-21.269c0-7.225-.864-14.421-2.567-21.389l-.089-.365.326-.187 200.145-114.993.271.285a95.156 95.156 0 001.568 1.611c8.256 8.253 17.877 14.738 28.598 19.272 11.125 4.705 22.917 7.091 35.05 7.091 12.134 0 23.926-2.386 35.051-7.091 10.724-4.536 20.345-11.02 28.597-19.272s14.736-17.874 19.271-28.598c4.706-11.125 7.092-22.917 7.092-35.049 0-12.131-2.386-23.923-7.091-35.049a89.659 89.659 0 00-19.272-28.598 89.666 89.666 0 00-28.597-19.272C489.938 3.386 478.146 1 466.012 1c-12.133 0-23.925 2.386-35.05 7.091a89.655 89.655 0 00-28.597 19.272 89.657 89.657 0 00-19.273 28.598c-4.705 11.124-7.09 22.916-7.09 35.049a89.8 89.8 0 003.56 25.103l.109.377-198.92 114.29-.27-.308a92.177 92.177 0 00-4.134-4.423 89.675 89.675 0 00-28.597-19.273c-11.125-4.705-22.917-7.091-35.05-7.091-12.132 0-23.924 2.386-35.049 7.091a89.651 89.651 0 00-28.598 19.273 89.649 89.649 0 00-19.272 28.598c-4.706 11.125-7.091 22.917-7.091 35.05 0 12.131 2.386 23.923 7.091 35.05a89.666 89.666 0 0019.272 28.597 89.684 89.684 0 0028.598 19.273c11.127 4.706 22.919 7.092 35.049 7.092 12.13 0 23.923-2.386 35.05-7.092a89.663 89.663 0 0028.597-19.273 91.166 91.166 0 004.216-4.515l.27-.308zm285.179 187.354c-26.562 0-48.171-21.609-48.171-48.172 0-.837.024-1.712.072-2.599.805-15.123 8.847-29.167 21.511-37.566a47.946 47.946 0 0126.588-8.007c26.562 0 48.172 21.609 48.172 48.172s-21.609 48.172-48.172 48.172zm0-95.344a46.939 46.939 0 00-26.035 7.841c-12.401 8.226-20.276 21.977-21.065 36.785-.047.87-.07 1.727-.07 2.546 0 26.011 21.161 47.172 47.171 47.172 26.011 0 47.172-21.161 47.172-47.172s-21.162-47.172-47.173-47.172zM112.701 337.867c-26.562 0-48.171-21.609-48.171-48.17 0-26.562 21.609-48.171 48.171-48.171 10.956 0 21.286 3.595 29.875 10.397 11.627 9.208 18.295 22.976 18.295 37.774 0 14.773-6.651 28.527-18.248 37.735-8.597 6.827-18.944 10.435-29.922 10.435zm0-95.341c-26.01 0-47.171 21.161-47.171 47.171 0 26.01 21.161 47.17 47.171 47.17 10.75 0 20.883-3.533 29.301-10.218 11.356-9.017 17.87-22.485 17.87-36.952 0-14.49-6.53-27.973-17.917-36.99-8.411-6.661-18.526-10.181-29.254-10.181zm353.312-103.345a47.94 47.94 0 01-26.527-7.968c-12.678-8.381-20.74-22.413-21.566-37.535a48.211 48.211 0 01-.077-2.669c0-26.562 21.609-48.171 48.171-48.171s48.171 21.609 48.171 48.171-21.61 48.172-48.172 48.172zm0-95.342c-26.01 0-47.171 21.161-47.171 47.171 0 .832.024 1.687.075 2.614.81 14.807 8.705 28.547 21.119 36.755a46.956 46.956 0 0025.977 7.802c26.01 0 47.171-21.161 47.171-47.171s-21.161-47.171-47.171-47.171z"/></svg>